<?xml version="1.0" encoding="UTF-8" standalone="no"?>
<svg
   xmlns:dc="http://purl.org/dc/elements/1.1/"
   xmlns:cc="http://creativecommons.org/ns#"
   xmlns:rdf="http://www.w3.org/1999/02/22-rdf-syntax-ns#"
   xmlns:svg="http://www.w3.org/2000/svg"
   xmlns="http://www.w3.org/2000/svg"
   xmlns:sodipodi="http://sodipodi.sourceforge.net/DTD/sodipodi-0.dtd"
   xmlns:inkscape="http://www.inkscape.org/namespaces/inkscape"
   height="50"
   width="50"
   viewBox="0 0 50 50"
   id="svg2"
   version="1.1"
   inkscape:version="0.91 r13725"
   sodipodi:docname="smoker-icon.svg">
  <metadata
     id="metadata13">
    <rdf:RDF>
      <cc:Work
         rdf:about="">
        <dc:format>image/svg+xml</dc:format>
        <dc:type
           rdf:resource="http://purl.org/dc/dcmitype/StillImage" />
        <dc:title></dc:title>
      </cc:Work>
    </rdf:RDF>
  </metadata>
  <defs
     id="defs11" />
  <sodipodi:namedview
     pagecolor="#ffffff"
     bordercolor="#666666"
     borderopacity="1"
     objecttolerance="10"
     gridtolerance="10"
     guidetolerance="10"
     inkscape:pageopacity="0"
     inkscape:pageshadow="2"
     inkscape:window-width="1920"
     inkscape:window-height="1137"
     id="namedview9"
     showgrid="false"
     fit-margin-top="1"
     fit-margin-right="1"
     fit-margin-bottom="1"
     fit-margin-left="1"
     inkscape:zoom="4.9166667"
     inkscape:cx="25"
     inkscape:cy="25"
     inkscape:window-x="-8"
     inkscape:window-y="-8"
     inkscape:window-maximized="1"
     inkscape:current-layer="g4" />
  <g
     id="g4"
     transform="translate(1,1)">
    <circle
       cy="24"
       cx="24"
       id="ellipse6"
       r="24"
       style="fill:#b71c1c;fill-opacity:1" />
    <path
       id="path1"
       transform="matrix(0.81229636,0,0,0.81229636,11,12.43575)"
       d="m 29.914012,20.641977 1.682002,1.081001 -4.339003,6.750004 -1.682001,-1.080999 z m -2.556989,-1.610992 1.682001,1.081002 -4.339005,6.750004 -1.682001,-1.080999 z M 4.3349901,4.5480086 26.483999,18.496005 25.417989,20.188998 4.945982,7.2960246 2.7730096,10.676029 23.228996,23.559022 22.162986,25.251009 0,11.292026 Z M 26.323419,9.970665e-4 C 26.644144,-0.01333857 26.965795,0.12720728 27.171428,0.40408087 27.50144,0.84507871 27.411436,1.4690757 26.97142,1.8000736 c -0.276009,0.2109993 -0.552019,0.5829973 -0.538017,0.7229967 0.004,0.036 0.110002,0.2139988 0.550018,0.4369978 3.907135,1.2129938 3.895136,2.4099877 3.892136,2.8049856 -0.007,0.7629962 -0.573021,1.3099936 -1.682059,1.6269918 -0.587021,0.1579993 -1.489052,0.5709972 -1.70306,0.9499953 -0.032,0.058 -0.032,0.082999 -0.017,0.1369991 l 0.033,0.1649993 0,-10e-4 c 0.007,0 0.218008,0.6679964 1.521053,1.3429933 0.049,0.021999 2.085072,0.9919945 2.763096,3.1869835 0.475017,1.539992 0.171005,3.239984 -0.905031,5.052975 -0.187006,0.314998 -0.519018,0.489997 -0.861031,0.489997 -0.174005,0 -0.350012,-0.045 -0.510017,-0.139999 -0.474016,-0.281998 -0.631022,-0.894995 -0.349013,-1.369993 0.776028,-1.306993 1.016035,-2.465988 0.713025,-3.442983 -0.412014,-1.334993 -1.720059,-1.97699 -1.734059,-1.98299 -2.107074,-1.091994 -2.525086,-2.3729876 -2.60809,-2.8029856 -0.146006,-0.5549972 -0.073,-1.1139943 0.214008,-1.619992 C 26.303398,6.3780507 27.53844,5.8350534 28.231464,5.5960547 27.711446,5.3410559 26.998422,5.0570574 26.319398,4.8480583 L 26.177393,4.7930589 C 24.846347,4.150062 24.499336,3.3070662 24.442333,2.7130694 24.310329,1.3300762 25.623375,0.31008148 25.772378,0.19808197 25.938884,0.07395744 26.130985,0.00959873 26.323419,9.970665e-4 Z"
       inkscape:connector-curvature="0"
       style="fill:#f7f7f7" />
  </g>
</svg>
