<?xml version="1.0" encoding="UTF-8" standalone="no"?>
<svg
   xmlns:dc="http://purl.org/dc/elements/1.1/"
   xmlns:cc="http://creativecommons.org/ns#"
   xmlns:rdf="http://www.w3.org/1999/02/22-rdf-syntax-ns#"
   xmlns:svg="http://www.w3.org/2000/svg"
   xmlns="http://www.w3.org/2000/svg"
   xmlns:sodipodi="http://sodipodi.sourceforge.net/DTD/sodipodi-0.dtd"
   xmlns:inkscape="http://www.inkscape.org/namespaces/inkscape"
   height="50"
   width="50"
   viewBox="0 0 50 50"
   id="svg2"
   version="1.1"
   inkscape:version="0.91 r13725"
   sodipodi:docname="email-icon.svg">
  <metadata
     id="metadata13">
    <rdf:RDF>
      <cc:Work
         rdf:about="">
        <dc:format>image/svg+xml</dc:format>
        <dc:type
           rdf:resource="http://purl.org/dc/dcmitype/StillImage" />
        <dc:title></dc:title>
      </cc:Work>
    </rdf:RDF>
  </metadata>
  <defs
     id="defs11" />
  <sodipodi:namedview
     pagecolor="#ffffff"
     bordercolor="#666666"
     borderopacity="1"
     objecttolerance="10"
     gridtolerance="10"
     guidetolerance="10"
     inkscape:pageopacity="0"
     inkscape:pageshadow="2"
     inkscape:window-width="1920"
     inkscape:window-height="1137"
     id="namedview9"
     showgrid="false"
     fit-margin-left="1"
     fit-margin-right="1"
     fit-margin-bottom="1"
     fit-margin-top="1"
     inkscape:zoom="4.9166667"
     inkscape:cx="25"
     inkscape:cy="25"
     inkscape:window-x="-8"
     inkscape:window-y="-8"
     inkscape:window-maximized="1"
     inkscape:current-layer="g4" />
  <g
     id="g4"
     transform="translate(1,1)">
    <circle
       cy="24"
       cx="24"
       id="ellipse6"
       r="24"
       style="fill:#263238;fill-opacity:1" />
    <path
       id="path1"
       d="m 24.077369,18.879356 -0.91323,0.11409 -0.821374,0.342278 -0.72952,0.570468 -0.637667,0.798651 -0.51777,0.96786 -0.369837,1.078085 -0.221901,1.188311 -0.07398,1.298535 0.199179,1.632115 0.597538,1.245357 0.431719,0.460242 0.498433,0.328743 0.565148,0.197245 0.631865,0.06574 0.909362,-0.11941 0.809773,-0.358233 0.710181,-0.597055 0.610595,-0.835879 0.490694,-1.033126 0.350498,-1.188794 0.210299,-1.344464 0.07009,-1.500134 -0.175009,-1.448404 -0.525021,-1.034574 -0.875038,-0.620746 -1.225052,-0.206913 z m 0.262995,-7.580436 2.516822,0.195312 2.290565,0.585936 2.064315,0.976561 1.838064,1.367187 1.509316,1.681425 1.078086,1.919283 0.646853,2.157136 0.215615,2.394992 -0.113604,1.758291 -0.340831,1.592958 -0.56805,1.427615 -0.795267,1.26228 -0.958673,1.032155 -1.058264,0.737256 -1.157852,0.442352 -1.257445,0.147453 -1.483213,-0.23012 -1.061648,-0.690362 -0.640082,-1.150602 -0.218518,-1.610841 -0.07735,0 -0.701,1.610841 -0.973662,1.150602 -1.246323,0.690362 -1.518985,0.23012 -1.007987,-0.09766 -0.904527,-0.292967 -0.801071,-0.488282 -0.697612,-0.683593 -0.565149,-0.848933 -0.403676,-0.984295 -0.242208,-1.11966 -0.08072,-1.255028 0.111678,-1.674175 0.335028,-1.526238 0.55838,-1.378304 0.781733,-1.23037 0.963509,-1.011854 1.103706,-0.722751 1.243907,-0.433651 1.384107,-0.144551 1.053909,0.143101 0.934021,0.429298 0.717434,0.645885 0.404161,0.792852 0.06189,0 0.05417,-0.661354 0.100556,-1.117728 1.933783,0 -0.170414,2.000258 -0.147694,1.738714 -0.124977,1.477169 -0.102251,1.215626 -0.07954,0.954081 -0.05681,0.692535 -0.0341,0.430994 -0.01141,0.169445 0.115057,1.401028 0.345182,1.000735 0.575301,0.60044 0.805421,0.200146 0.800104,-0.113132 0.72952,-0.33938 0.658937,-0.565632 0.588352,-0.791887 0.48393,-0.971724 0.345666,-1.105159 0.207397,-1.238589 0.06914,-1.372022 -0.168238,-2.029503 -0.504718,-1.834197 -0.841196,-1.638881 -1.177677,-1.443572 -1.475476,-1.177672 -1.734607,-0.841198 -1.993731,-0.504717 -2.252856,-0.168241 -2.197747,0.201116 -1.998566,0.60334 -1.799387,1.005568 -1.600206,1.407794 -1.313038,1.709468 -0.937887,1.910579 -0.56273,2.111692 -0.187579,2.312806 0.178391,2.260111 0.535175,2.030955 0.891959,1.801805 1.248742,1.57265 1.551378,1.275814 1.799869,0.911296 2.048362,0.546777 2.296853,0.182259 1.840963,-0.0793 1.701729,-0.237855 1.562497,-0.396427 1.423268,-0.554996 0,1.918314 -1.421334,0.50085 -1.587637,0.35775 -1.753942,0.214651 -1.920248,0.07156 -2.678773,-0.212233 -2.405144,-0.6367 -2.131516,-1.061161 -1.857883,-1.48563 -1.505937,-1.828877 -1.075665,-2.090907 -0.645402,-2.352931 -0.215132,-2.61496 0.225768,-2.710198 0.677307,-2.468477 1.128847,-2.226752 1.580388,-1.985031 1.931366,-1.631145 2.181793,-1.165107 2.432218,-0.699065 2.682642,-0.233018 z"
       inkscape:connector-curvature="0"
       style="fill:#f7f7f7" />
  </g>
</svg>
