<?xml version="1.0" encoding="UTF-8" standalone="no"?>
<svg
   xmlns:dc="http://purl.org/dc/elements/1.1/"
   xmlns:cc="http://creativecommons.org/ns#"
   xmlns:rdf="http://www.w3.org/1999/02/22-rdf-syntax-ns#"
   xmlns:svg="http://www.w3.org/2000/svg"
   xmlns="http://www.w3.org/2000/svg"
   xmlns:sodipodi="http://sodipodi.sourceforge.net/DTD/sodipodi-0.dtd"
   xmlns:inkscape="http://www.inkscape.org/namespaces/inkscape"
   height="50"
   width="50"
   viewBox="0 0 50 50"
   id="svg2"
   version="1.1"
   inkscape:version="0.91 r13725"
   sodipodi:docname="female-icon.svg">
  <metadata
     id="metadata13">
    <rdf:RDF>
      <cc:Work
         rdf:about="">
        <dc:format>image/svg+xml</dc:format>
        <dc:type
           rdf:resource="http://purl.org/dc/dcmitype/StillImage" />
        <dc:title />
      </cc:Work>
    </rdf:RDF>
  </metadata>
  <defs
     id="defs11" />
  <sodipodi:namedview
     pagecolor="#ffffff"
     bordercolor="#666666"
     borderopacity="1"
     objecttolerance="10"
     gridtolerance="10"
     guidetolerance="10"
     inkscape:pageopacity="0"
     inkscape:pageshadow="2"
     inkscape:window-width="1920"
     inkscape:window-height="1137"
     id="namedview9"
     showgrid="false"
     fit-margin-top="1"
     fit-margin-left="1"
     fit-margin-right="1"
     fit-margin-bottom="1"
     inkscape:zoom="9.8333334"
     inkscape:cx="22.936"
     inkscape:cy="31.948503"
     inkscape:window-x="-8"
     inkscape:window-y="-8"
     inkscape:window-maximized="1"
     inkscape:current-layer="g4" />
  <g
     id="g4"
     transform="translate(1,1)">
    <circle
       cy="24"
       cx="24"
       id="ellipse6"
       r="24"
       style="fill:#d81b60;fill-opacity:1" />
    <path
       id="path1"
       d="m 23.987299,12.263057 c -1.723744,0 -3.459695,0.660094 -4.779904,1.980284 -2.640418,2.542742 -2.640418,6.84606 0,9.486456 2.640418,2.64038 6.84616,2.64038 9.48658,0 2.640432,-2.542743 2.640432,-6.846061 0,-9.486456 -1.27139,-1.32019 -2.98293,-1.980284 -4.706676,-1.980284 z m 0.0127,-2.7629285 c 2.445128,0 4.890256,0.9291145 6.748512,2.7873455 3.716516,3.716458 3.716516,9.779383 0,13.495843 -1.565307,1.467631 -3.423564,2.347435 -5.281821,2.641365 l 0,3.227237 3.521205,0 0,3.030978 -3.521205,0 0,3.816975 -3.129645,0 0,-3.816975 -3.227302,0 0,-3.030978 3.227302,0 0,-3.227237 c -1.858258,-0.29393 -3.618875,-1.173734 -5.085559,-2.641365 -3.716513,-3.71646 -3.716513,-9.779385 0,-13.495843 C 19.109743,10.429243 21.554872,9.5001285 24,9.5001285 Z"
       inkscape:connector-curvature="0"
       style="fill:#f7f7f7"
       sodipodi:nodetypes="scsccsssccccccccccccccss" />
  </g>
</svg>
