<?xml version="1.0" encoding="UTF-8" standalone="no"?>
<svg
   xmlns:dc="http://purl.org/dc/elements/1.1/"
   xmlns:cc="http://creativecommons.org/ns#"
   xmlns:rdf="http://www.w3.org/1999/02/22-rdf-syntax-ns#"
   xmlns:svg="http://www.w3.org/2000/svg"
   xmlns="http://www.w3.org/2000/svg"
   xmlns:sodipodi="http://sodipodi.sourceforge.net/DTD/sodipodi-0.dtd"
   xmlns:inkscape="http://www.inkscape.org/namespaces/inkscape"
   id="svg2"
   version="1.1"
   inkscape:version="0.91 r13725"
   sodipodi:docname="mobile-icon.svg"
   width="50"
   height="50">
  <metadata
     id="metadata15">
    <rdf:RDF>
      <cc:Work
         rdf:about="">
        <dc:format>image/svg+xml</dc:format>
        <dc:type
           rdf:resource="http://purl.org/dc/dcmitype/StillImage" />
        <dc:title></dc:title>
      </cc:Work>
    </rdf:RDF>
  </metadata>
  <defs
     id="defs13" />
  <sodipodi:namedview
     pagecolor="#ffffff"
     bordercolor="#666666"
     borderopacity="1"
     objecttolerance="10"
     gridtolerance="10"
     guidetolerance="10"
     inkscape:pageopacity="0"
     inkscape:pageshadow="2"
     inkscape:window-width="1920"
     inkscape:window-height="1137"
     id="namedview11"
     showgrid="false"
     fit-margin-top="1"
     fit-margin-left="1"
     fit-margin-right="1"
     fit-margin-bottom="1"
     inkscape:zoom="1"
     inkscape:cx="74.728814"
     inkscape:cy="61.20339"
     inkscape:window-x="-8"
     inkscape:window-y="-8"
     inkscape:window-maximized="1"
     inkscape:current-layer="g4" />
  <g
     id="g4"
     transform="translate(1,-79)">
    <circle
       cy="104"
       cx="24"
       id="ellipse6"
       style="fill:#263238;fill-opacity:1;stroke:none;stroke-opacity:1"
       r="24" />
    <g
       transform="matrix(0.37500001,0,0,0.37500001,17.257385,91.249998)"
       id="g8">
      <path
         id="path1"
         height="68"
         width="68"
         transform="scale(0.08018868,0.08018868)"
         d="m 198.273,749.162 c -10.588,0 -19.189,10.313 -19.189,23.048 l 0,14.431 c 0,12.781 8.601,23.093 19.189,23.093 l 53.985,0 c 10.569,0 19.188,-10.312 19.188,-23.093 l 0,-14.431 c 0,-12.735 -8.619,-23.048 -19.188,-23.048 z M 37.3278,104.758 l 0,605.896 369.7472,0 0,-605.896 z M 144.643,34.4351 c -5.003,0 -9.051,4.2552 -9.051,9.5096 0,5.2696 4.048,9.5096 9.051,9.5096 l 167.054,0 c 4.983,0 9.013,-4.24 9.013,-9.5096 0,-5.2544 -4.03,-9.5096 -9.013,-9.5096 z M 49.6394,0 398.793,0 c 27.395,3e-6 49.657,23.3807 49.657,52.2583 l 0,743.4987 C 448.45,824.635 426.188,848 398.793,848 L 49.6394,848 C 22.2243,848 -3e-6,824.635 0,795.757 L 0,52.2583 C -3e-6,23.3807 22.2243,3e-6 49.6394,0 Z"
         inkscape:connector-curvature="0"
         style="fill:#f8f8f8" />
    </g>
  </g>
</svg>
