<?xml version="1.0" encoding="UTF-8" standalone="no"?>
<svg
   xmlns:dc="http://purl.org/dc/elements/1.1/"
   xmlns:cc="http://creativecommons.org/ns#"
   xmlns:rdf="http://www.w3.org/1999/02/22-rdf-syntax-ns#"
   xmlns:svg="http://www.w3.org/2000/svg"
   xmlns="http://www.w3.org/2000/svg"
   xmlns:sodipodi="http://sodipodi.sourceforge.net/DTD/sodipodi-0.dtd"
   xmlns:inkscape="http://www.inkscape.org/namespaces/inkscape"
   height="50"
   width="50"
   viewBox="0 0 50 50"
   id="svg2"
   version="1.1"
   inkscape:version="0.91 r13725"
   sodipodi:docname="non-smoker-icon.svg">
  <metadata
     id="metadata13">
    <rdf:RDF>
      <cc:Work
         rdf:about="">
        <dc:format>image/svg+xml</dc:format>
        <dc:type
           rdf:resource="http://purl.org/dc/dcmitype/StillImage" />
        <dc:title></dc:title>
      </cc:Work>
    </rdf:RDF>
  </metadata>
  <defs
     id="defs11" />
  <sodipodi:namedview
     pagecolor="#ffffff"
     bordercolor="#666666"
     borderopacity="1"
     objecttolerance="10"
     gridtolerance="10"
     guidetolerance="10"
     inkscape:pageopacity="0"
     inkscape:pageshadow="2"
     inkscape:window-width="1920"
     inkscape:window-height="1137"
     id="namedview9"
     showgrid="false"
     fit-margin-top="1"
     fit-margin-right="1"
     fit-margin-left="1"
     fit-margin-bottom="1"
     inkscape:zoom="4.9166667"
     inkscape:cx="25"
     inkscape:cy="25"
     inkscape:window-x="-8"
     inkscape:window-y="-8"
     inkscape:window-maximized="1"
     inkscape:current-layer="g4" />
  <g
     id="g4"
     transform="translate(1,1)">
    <circle
       cy="24"
       cx="24"
       id="ellipse6"
       r="24"
       style="fill:#1b5e20;fill-opacity:1" />
    <path
       id="path1"
       transform="matrix(0.81247404,0,0,0.81247404,11.000415,11)"
       d="m 21.479807,17.002009 -5.619095,6 14.139288,0 0,-6 z m -11.479769,0 0,6 3.121826,0 5.619358,-6 z m -4.0000004,0 0,6 2.0000005,0 0,-6 z m -4.0000376,0 0,6 2.0000376,0 0,-6 z M 26.966774,8.6465311 c 0.255627,-0.00825 0.514881,0.081 0.717382,0.2695007 0.403004,0.3769994 0.423005,1.0099993 0.045,1.4129992 l -4.376318,4.672978 8.647162,0 0,10 -18.01232,0 -6.2587453,6.683012 c -0.196002,0.209999 -0.4620051,0.316 -0.7290082,0.316 -0.2450027,0 -0.4900055,-0.09 -0.6840076,-0.271 -0.4030042,-0.376001 -0.4230046,-1.008999 -0.045,-1.413 l 4.9778261,-5.315012 -11.2487449,0 0,-10 20.614341900000002,0 5.656799,-6.0399776 c 0.188002,-0.2015 0.440004,-0.3072501 0.695633,-0.3155003 z M 7.2759857,1.0142946 c 0.9816837,0.00848 2.2597227,0.2113056 3.2514133,1.0365095 0.807002,0.6710129 1.266004,1.6090317 1.371004,2.7960558 0.715002,0.1990042 1.860005,0.6180125 2.549007,1.8110361 0.670002,1.1590238 0.728002,2.767056 0.171,4.781096 -0.122,0.443009 -0.525001,0.733015 -0.963002,0.733015 -0.089,0 -0.178001,-0.012 -0.268001,-0.036 -0.532001,-0.148004 -0.844002,-0.698015 -0.697002,-1.231025 0.403001,-1.4560293 0.411001,-2.5790519 0.026,-3.2460655 C 12.350404,7.0269036 11.645402,6.8449001 11.130401,6.7108974 10.248398,6.4838934 9.8423967,6.0538845 9.9223976,5.4348717 9.9293976,4.5788546 9.7103967,3.9758425 9.2523956,3.591835 8.3853931,2.8638201 6.758388,2.9938231 6.2003865,3.104825 5.6653852,3.2168274 5.1323833,2.8638201 5.0213833,2.3248091 4.9113831,1.7847986 5.2573838,1.2577877 5.7973857,1.1457853 5.9281983,1.11866 6.512454,1.0076971 7.2759857,1.0142946 Z M 3.2044151,7.7533722e-4 C 3.3655069,0.00713253 3.5273008,0.05269813 3.6754226,0.14113522 4.1494136,0.4251318 4.3054108,1.0371265 4.023416,1.5121222 3.5954244,2.2361155 2.6074433,4.4670944 3.1734326,6.06108 3.4564271,6.8590727 4.0984144,7.4340672 5.1343946,7.8190637 l 0.052999,-0.002 c 4.3219171,0.7209936 5.5408934,3.2559693 5.8038884,5.2569513 0.072,0.546994 -0.312994,1.04999 -0.860983,1.120989 -0.044,0.006 -0.088,0.009 -0.1309981,0.009 -0.4949903,0 -0.924982,-0.365997 -0.9899807,-0.869992 C 8.7513246,11.37203 7.394351,10.213041 4.8583998,9.7900453 4.6514039,9.7560453 4.5264063,9.7350454 4.383409,9.6720462 2.831439,9.0980515 1.7704594,8.0980611 1.2854685,6.7220736 0.29448783,3.9120998 2.2224507,0.62812996 2.3044493,0.48913193 2.4990079,0.16257286 2.850013,-0.01321125 3.2044151,7.7533722e-4 Z"
       inkscape:connector-curvature="0"
       style="fill:#f7f7f7" />
  </g>
</svg>
