<?xml version="1.0" encoding="UTF-8" standalone="no"?>
<svg
   xmlns:dc="http://purl.org/dc/elements/1.1/"
   xmlns:cc="http://creativecommons.org/ns#"
   xmlns:rdf="http://www.w3.org/1999/02/22-rdf-syntax-ns#"
   xmlns:svg="http://www.w3.org/2000/svg"
   xmlns="http://www.w3.org/2000/svg"
   xmlns:sodipodi="http://sodipodi.sourceforge.net/DTD/sodipodi-0.dtd"
   xmlns:inkscape="http://www.inkscape.org/namespaces/inkscape"
   height="48"
   width="48"
   viewBox="0 0 48 48"
   id="svg2"
   version="1.1"
   inkscape:version="0.91 r13725"
   sodipodi:docname="user-icon.svg">
  <metadata
     id="metadata13">
    <rdf:RDF>
      <cc:Work
         rdf:about="">
        <dc:format>image/svg+xml</dc:format>
        <dc:type
           rdf:resource="http://purl.org/dc/dcmitype/StillImage" />
      </cc:Work>
    </rdf:RDF>
  </metadata>
  <defs
     id="defs11" />
  <sodipodi:namedview
     pagecolor="#ffffff"
     bordercolor="#666666"
     borderopacity="1"
     objecttolerance="10"
     gridtolerance="10"
     guidetolerance="10"
     inkscape:pageopacity="0"
     inkscape:pageshadow="2"
     inkscape:window-width="1920"
     inkscape:window-height="1137"
     id="namedview9"
     showgrid="false"
     inkscape:zoom="9.8333333"
     inkscape:cx="38.822943"
     inkscape:cy="38.588315"
     inkscape:window-x="-8"
     inkscape:window-y="-8"
     inkscape:window-maximized="1"
     inkscape:current-layer="g4" />
  <g
     id="g4">
    <rect
       height="48"
       width="48"
       id="rect6"
       style="fill:#eceff1;fill-opacity:1"
       rx="1.2696897"
       ry="1.2696897"
       x="0"
       y="0" />
    <path
       id="path1"
       transform="rotate(0,24,24) translate(11.8125,11) scale(0.8125,0.8125)  "
       fill="#F7F7F7"
       d="M12.202026,17C6.5759277,17 2,21.487 2,27.002014 2,28.654999 3.3769531,30 5.0699463,30L24.929932,30C26.622925,30 28,28.654999 28,27.002014 28,24.212006 26.855957,21.622009 24.780029,19.709015 22.881958,17.962006 20.401978,17 17.797974,17L15,17z M15,2C11.340984,2 8.3629713,4.9160004 8.3629713,8.5 8.3629713,11.391 10.34298,13.962 13.177992,14.752 14.356997,15.081 15.642003,15.082 16.825008,14.751 19.65802,13.96 21.637028,11.389 21.637028,8.5 21.637028,4.9160004 18.659016,2 15,2z M15,0C19.76302,0 23.637037,3.8129997 23.637037,8.5 23.637037,11.100812 22.41758,13.503109 20.455042,15.085909L20.250933,15.243913 20.372736,15.268183C22.515827,15.72107 24.504135,16.737247 26.13501,18.238007 28.591919,20.501007 30,23.695007 30,27.002014 30,29.757996 27.724976,32 24.929932,32L5.0699463,32C2.2739258,32 0,29.757996 0,27.002014 0,21.211254 4.1902828,16.365282 9.74576,15.24427L9.7486429,15.243725 9.5467005,15.087523C7.5828938,13.504914 6.3629627,11.102188 6.3629627,8.5 6.3629627,3.8129997 10.236979,0 15,0z"
       style="fill:#ffffff;fill-opacity:1" />
  </g>
</svg>
